<svg width="30" height="40" viewBox="0 0 30 40" fill="none" xmlns="http://www.w3.org/2000/svg">
	<path fill-rule="evenodd" clip-rule="evenodd" d="M0 22C0 20.8954 0.89543 20 2 20H18C19.1046 20 20 20.8954 20 22V28C20 29.1046 19.1046 30 18 30H12C10.8954 30 10 30.8954 10 32V38C10 39.1046 9.10457 40 8 40H2C0.895431 40 0 39.1046 0 38V22Z" fill="#FF8D24" />
	<path fill-rule="evenodd" clip-rule="evenodd" d="M12 0C10.8954 0 10 0.895431 10 2V8C10 9.10457 10.8954 10 12 10H18C19.1046 10 20 10.8954 20 12V18C20 19.1046 20.8954 20 22 20H28C29.1046 20 30 19.1046 30 18V2C30 0.89543 29.1046 0 28 0H12ZM2 20C0.89543 20 0 20.8954 0 22V38C0 39.1046 0.895431 40 2 40H8C9.10457 40 10 39.1046 10 38V32C10 30.8954 10.8954 30 12 30H18C19.1046 30 20 29.1046 20 28V22C20 20.8954 19.1046 20 18 20H2Z" fill="#FF8D24" fill-opacity="0.6" />
</svg>
