<svg width="67" height="28" viewBox="0 0 67 28" fill="none" xmlns="http://www.w3.org/2000/svg">
	<path fill-rule="evenodd" clip-rule="evenodd" d="M9 4C8.44772 4 8 4.44772 8 5V13C8 13.5523 8.44772 14 9 14H12C12.5523 14 13 14.4477 13 15V18C13 18.5523 12.5523 19 12 19H9C8.44772 19 8 19.4477 8 20V23C8 23.5523 8.44772 24 9 24H12.0001C12.5523 24 13 23.5523 13.0001 23.0001L13.0004 19.9999C13.0005 19.4477 13.4482 19 14.0004 19H16.9996C17.5518 19 17.9995 19.4477 17.9996 19.9999L17.9999 23.0001C18 23.5523 18.4477 24 18.9999 24H22C22.5523 24 23 23.5523 23 23V20C23 19.4477 22.5523 19 22 19H19C18.4477 19 18 18.5523 18 18V15C18 14.4477 18.4477 14 19 14H22C22.5523 14 23 13.5523 23 13V5C23 4.44772 22.5523 4 22 4H9ZM13.0001 10.0001C13 9.44778 13.4478 9 14.0001 9H16.9999C17.5522 9 18 9.44778 17.9999 10.0001L17.9996 13.0001C17.9995 13.5523 17.5518 14 16.9996 14H14.0004C13.4482 14 13.0005 13.5523 13.0004 13.0001L13.0001 10.0001Z" fill="#2461FF" fill-opacity="0.4" />
	<path d="M23 10C23 9.44772 22.5523 9 22 9H18.9999C18.4477 9 18 9.44765 17.9999 9.9999L17.9996 13.0001C17.9995 13.5523 17.5518 14 16.9996 14H14C13.4477 14 13 14.4477 13 15V18C13 18.5523 12.5523 19 12 19H9C8.44772 19 8 19.4477 8 20V23C8 23.5523 8.44772 24 9 24H12.0001C12.5523 24 13 23.5523 13.0001 23.0001L13.0004 19.9999C13.0005 19.4477 13.4482 19 14.0004 19H16.9996C17.5518 19 17.9995 19.4477 17.9996 19.9999L17.9999 23.0001C18 23.5523 18.4477 24 18.9999 24H22C22.5523 24 23 23.5523 23 23V20C23 19.4477 22.5523 19 22 19H19C18.4477 19 18 18.5523 18 18V15C18 14.4477 18.4477 14 19 14H22C22.5523 14 23 13.5523 23 13V10Z" fill="#2461FF" />
	<path d="M31.848 20.096C30.4933 20.096 29.4213 19.7173 28.632 18.96C27.8533 18.2027 27.464 17.184 27.464 15.904C27.464 14.624 27.848 13.6 28.616 12.832C29.3947 12.064 30.4187 11.68 31.688 11.68C32.9253 11.68 33.9227 12.0373 34.68 12.752C35.448 13.4667 35.8373 14.4267 35.848 15.632C35.848 15.92 35.8267 16.176 35.784 16.4H29.816V16.512C29.8373 17.088 30.0187 17.5467 30.36 17.888C30.712 18.2187 31.176 18.384 31.752 18.384C32.7227 18.384 33.304 17.9947 33.496 17.216H35.72C35.592 18.048 35.1813 18.736 34.488 19.28C33.7947 19.824 32.9147 20.096 31.848 20.096ZM29.864 14.928H33.576C33.5013 14.4267 33.2987 14.0427 32.968 13.776C32.6373 13.4987 32.216 13.36 31.704 13.36C31.2133 13.36 30.7973 13.504 30.456 13.792C30.1253 14.0693 29.928 14.448 29.864 14.928ZM37.0809 20V8.8H39.3369V20H37.0809ZM46.877 12.8V8.8H49.133V20H47.165L46.941 18.864C46.3117 19.6853 45.469 20.096 44.413 20.096C43.293 20.096 42.3757 19.712 41.661 18.944C40.9463 18.176 40.589 17.152 40.589 15.872C40.589 14.6133 40.9463 13.6 41.661 12.832C42.3757 12.064 43.2877 11.68 44.397 11.68C45.4637 11.68 46.2903 12.0533 46.877 12.8ZM43.437 17.6C43.8103 18.0373 44.301 18.256 44.909 18.256C45.517 18.256 46.0023 18.0427 46.365 17.616C46.7277 17.1787 46.909 16.608 46.909 15.904C46.909 15.1893 46.7277 14.6133 46.365 14.176C46.0023 13.7387 45.517 13.52 44.909 13.52C44.301 13.52 43.8103 13.7387 43.437 14.176C43.0743 14.6133 42.893 15.184 42.893 15.888C42.893 16.592 43.0743 17.1627 43.437 17.6ZM58.5459 18.096H58.8019V20H57.6499C56.6152 20 56.1085 19.552 56.1299 18.656C55.5219 19.616 54.6259 20.096 53.4419 20.096C52.5245 20.096 51.7832 19.888 51.2179 19.472C50.6632 19.0453 50.3859 18.448 50.3859 17.68C50.3859 16.8053 50.7059 16.1333 51.3459 15.664C51.9965 15.184 52.9352 14.944 54.1619 14.944H55.7939V14.544C55.7939 14.1707 55.6659 13.8773 55.4099 13.664C55.1539 13.44 54.7912 13.328 54.3219 13.328C53.8845 13.328 53.5272 13.4187 53.2499 13.6C52.9725 13.7813 52.8072 14.0267 52.7539 14.336H50.5779C50.6632 13.536 51.0472 12.896 51.7299 12.416C52.4125 11.9253 53.2979 11.68 54.3859 11.68C55.5485 11.68 56.4445 11.936 57.0739 12.448C57.7032 12.96 58.0179 13.7013 58.0179 14.672V17.584C58.0179 17.7867 58.0552 17.9253 58.1299 18C58.2152 18.064 58.3539 18.096 58.5459 18.096ZM55.7939 16.608V16.448H54.1459C53.6765 16.448 53.3085 16.544 53.0419 16.736C52.7859 16.9173 52.6579 17.1787 52.6579 17.52C52.6579 17.808 52.7645 18.0373 52.9779 18.208C53.2019 18.3787 53.5005 18.464 53.8739 18.464C54.4605 18.464 54.9245 18.2987 55.2659 17.968C55.6072 17.6267 55.7832 17.1733 55.7939 16.608Z" fill="black" />
</svg>
