<svg width="30" height="40" view-box="0 0 30 40" fill="none" xmlns="http://www.w3.org/2000/svg">
	<path fill-rule="evenodd" clip-rule="evenodd" d="M2 0H28C29.1046 0 30 0.895453 30 2.00005V8.0002C30 9.1048 29.1046 10.0003 28 10.0003H22C20.8954 10.0003 20 10.8957 20 12.0003V18.0005C20 19.105 19.1046 20.0005 18 20.0005H12C10.8954 20.0005 10 19.105 10 18.0005V12.0003C10 10.8957 9.10457 10.0003 8 10.0003H2C0.89543 10.0003 0 9.1048 0 8.0002V2.00005C0 0.895453 0.895431 0 2 0ZM2 20.0005C0.89543 20.0005 0 20.896 0 22.0006V28.0007C0 29.1053 0.895431 30.0008 2 30.0008H8C9.10457 30.0008 10 30.8962 10 32.0008V38C10 39.1045 10.8954 40 12 40H18C19.1046 40 20 39.1045 20 38V32.0008C20 30.8962 20.8954 30.0008 22 30.0008H28C29.1046 30.0008 30 29.1053 30 28.0007V22.0006C30 20.896 29.1046 20.0005 28 20.0005H22C20.8954 20.0005 20 20.896 20 22.0006V27.9997C20 29.1043 19.1046 29.9998 18 29.9998H12C10.8954 29.9998 10 29.1043 10 27.9997V22.0006C10 20.896 9.10457 20.0005 8 20.0005H2Z" fill="#2461FF" fill-opacity="0.6" />
	<path fill-rule="evenodd" clip-rule="evenodd" d="M0 22.0006C0 20.896 0.89543 20.0005 2 20.0005H8C9.10457 20.0005 10 20.896 10 22.0006V27.9997C10 29.1043 10.8954 29.9998 12 29.9998H18C19.1046 29.9998 20 29.1043 20 27.9997V22.0006C20 20.896 20.8954 20.0005 22 20.0005H28C29.1046 20.0005 30 20.896 30 22.0006V28.0007C30 29.1053 29.1046 30.0008 28 30.0008H22C20.8954 30.0008 20 30.8962 20 32.0008V38C20 39.1045 19.1046 40 18 40H12C10.8954 40 10 39.1045 10 38V32.0008C10 30.8962 9.10457 30.0008 8 30.0008H2C0.895431 30.0008 0 29.1053 0 28.0007V22.0006Z" fill="#2461FF" />
</svg>
