<svg width="309" height="127" viewBox="0 0 309 127" fill="none" xmlns="http://www.w3.org/2000/svg">
	<rect width="166.721" height="105.235" rx="12" fill="#F93535" />
	<path d="M308.136 90.234C309.46 85.2081 306.459 80.0606 301.433 78.7368L237.514 61.8995C235.1 61.2638 232.533 61.6128 230.377 62.8699L209.231 75.1985C208.482 75.6348 208.229 76.5951 208.666 77.3435L220.994 98.4896C222.251 100.646 224.313 102.214 226.727 102.85L290.646 119.687C295.672 121.011 300.82 118.01 302.144 112.984L308.136 90.234Z" fill="#F93535" />
	<path d="M236.793 79.551L236.784 69.3307L238.654 69.8233L238.371 77.8795L242.394 70.8085L244.319 71.3155L244.282 79.4364L248.005 72.2863L249.888 72.7825L244.778 81.6544L242.703 81.1079L242.672 73.5237L238.854 80.0939L236.793 79.551Z" fill="black" />
	<path d="M251.123 83.5011C250.441 83.3213 249.874 83.0163 249.423 82.5861C248.972 82.1558 248.666 81.6373 248.504 81.0304C248.343 80.4235 248.354 79.7742 248.536 79.0826C248.72 78.3819 249.03 77.7969 249.465 77.3276C249.909 76.8607 250.43 76.5454 251.028 76.3817C251.637 76.2113 252.297 76.2197 253.007 76.4066C253.671 76.5816 254.22 76.8818 254.653 77.3073C255.085 77.7327 255.376 78.2374 255.524 78.8213C255.683 79.3985 255.681 79.9965 255.518 80.6153C255.492 80.7154 255.46 80.8189 255.422 80.9257C255.393 81.0349 255.359 81.1474 255.318 81.2633L250.172 79.9078C250.07 80.4452 250.143 80.9072 250.391 81.2938C250.649 81.6828 251.014 81.9396 251.487 82.0642C251.842 82.1577 252.158 82.1583 252.436 82.0659C252.725 81.9668 252.962 81.8055 253.147 81.5818L254.922 82.0492C254.682 82.4434 254.365 82.7784 253.971 83.0542C253.589 83.3233 253.153 83.5004 252.663 83.5855C252.183 83.6731 251.669 83.6449 251.123 83.5011ZM252.633 77.8262C252.205 77.7136 251.795 77.7369 251.403 77.8964C251.013 78.0467 250.708 78.3555 250.487 78.823L253.859 79.7111C253.949 79.258 253.879 78.8599 253.648 78.5169C253.417 78.1739 253.079 77.9437 252.633 77.8262Z" fill="black" />
	<path d="M261.579 86.2551C260.996 86.1017 260.542 85.8849 260.217 85.6046C259.894 85.3152 259.683 84.9918 259.582 84.6345C259.482 84.2771 259.481 83.9119 259.579 83.5388C259.744 82.9109 260.124 82.466 260.719 82.2042C261.313 81.9423 262.102 81.9408 263.085 82.1997L264.805 82.6527L264.848 82.4889C264.97 82.0248 264.928 81.6488 264.722 81.3609C264.515 81.073 264.216 80.8775 263.825 80.7744C263.47 80.6809 263.138 80.6859 262.829 80.7893C262.522 80.8836 262.293 81.0861 262.143 81.3969L260.437 80.9475C260.612 80.4681 260.888 80.0835 261.266 79.7938C261.653 79.5065 262.099 79.3272 262.605 79.256C263.113 79.1756 263.648 79.2098 264.213 79.3584C265.177 79.6125 265.874 80.0538 266.302 80.6823C266.73 81.3109 266.828 82.0665 266.595 82.9492L265.498 87.1125L264.01 86.7206L264.134 85.5854C263.838 85.8967 263.477 86.1227 263.051 86.2634C262.634 86.4065 262.143 86.4037 261.579 86.2551ZM262.334 84.9944C262.835 85.1262 263.264 85.0643 263.624 84.8086C263.992 84.5553 264.276 84.1971 264.476 83.734L262.988 83.342C262.524 83.2198 262.169 83.2188 261.923 83.3389C261.68 83.45 261.526 83.6284 261.461 83.8741C261.392 84.138 261.438 84.3691 261.6 84.5674C261.762 84.7658 262.006 84.9081 262.334 84.9944Z" fill="black" />
	<path d="M270.235 88.5353C269.598 88.3675 269.07 88.063 268.651 87.6217C268.232 87.1805 267.947 86.6531 267.798 86.0394C267.648 85.4258 267.663 84.7778 267.843 84.0953C268.022 83.4128 268.327 82.8459 268.758 82.3949C269.19 81.9347 269.696 81.6203 270.276 81.4519C270.858 81.2743 271.467 81.2694 272.105 81.4372C272.614 81.5714 273.035 81.7844 273.367 82.0762C273.699 82.368 273.937 82.718 274.083 83.1261L275.133 79.1402L276.88 79.6005L274.291 89.4286L272.735 89.0187L272.799 87.9992C272.502 88.242 272.141 88.4292 271.717 88.5608C271.302 88.6948 270.808 88.6863 270.235 88.5353ZM271.006 87.1035C271.57 87.2522 272.079 87.1867 272.532 86.907C272.997 86.6207 273.307 86.1818 273.463 85.5903C273.619 84.9988 273.564 84.4686 273.298 83.9996C273.044 83.5239 272.635 83.2117 272.07 83.0631C271.515 82.9169 271.007 82.9824 270.544 83.2596C270.082 83.5368 269.773 83.9712 269.617 84.5627C269.461 85.1542 269.515 85.689 269.778 86.1671C270.042 86.6452 270.451 86.9573 271.006 87.1035Z" fill="black" />
	<path d="M277.899 90.3791L277.199 82.9542L279.028 83.436L279.399 89.0079L282.467 84.3421L284.297 84.8239L280.015 90.9364L277.899 90.3791Z" fill="black" />
	<path d="M286.617 84.3112C286.299 84.2273 286.06 84.0623 285.901 83.816C285.751 83.5722 285.715 83.3047 285.791 83.0135C285.868 82.7223 286.031 82.512 286.279 82.3828C286.538 82.2468 286.827 82.2208 287.146 82.3047C287.464 82.3886 287.699 82.5524 287.848 82.7963C288.01 83.0334 288.052 83.2976 287.975 83.5888C287.899 83.88 287.731 84.0936 287.471 84.2295C287.22 84.3679 286.936 84.3951 286.617 84.3112ZM283.683 91.9027L285.467 85.1322L287.214 85.5924L285.431 92.3629L283.683 91.9027Z" fill="black" />
	<path d="M290.009 93.7442C289.409 93.586 288.906 93.3514 288.502 93.0404C288.099 92.7204 287.807 92.3515 287.625 91.9338C287.443 91.5161 287.385 91.0725 287.45 90.6031L289.211 91.067C289.196 91.3452 289.282 91.6111 289.468 91.8645C289.666 92.1113 289.956 92.285 290.338 92.3856C290.72 92.4863 291.018 92.4821 291.232 92.3729C291.455 92.2661 291.592 92.1127 291.645 91.9125C291.722 91.6213 291.646 91.392 291.418 91.2248C291.192 91.0485 290.864 90.8504 290.436 90.6304C290.161 90.49 289.886 90.3348 289.609 90.1646C289.333 89.9945 289.086 89.8077 288.867 89.6041C288.659 89.3937 288.507 89.159 288.41 88.8998C288.315 88.6316 288.311 88.3337 288.397 88.0061C288.555 87.4055 288.925 86.9627 289.506 86.6779C290.096 86.3954 290.824 86.368 291.688 86.5958C292.489 86.8067 293.077 87.161 293.452 87.6588C293.836 88.159 293.987 88.7486 293.905 89.4278L292.254 88.9927C292.285 88.4659 291.974 88.1161 291.319 87.9435C290.991 87.8572 290.719 87.8538 290.504 87.9333C290.297 88.0151 290.169 88.1516 290.119 88.3427C290.066 88.5429 290.156 88.7369 290.389 88.9247C290.621 89.1126 290.943 89.314 291.353 89.5292C291.798 89.7631 292.198 89.9998 292.553 90.2393C292.92 90.4722 293.187 90.7518 293.354 91.078C293.523 91.3951 293.545 91.7948 293.418 92.2771C293.316 92.6982 293.108 93.047 292.792 93.3238C292.475 93.6006 292.078 93.7782 291.6 93.8566C291.122 93.9351 290.592 93.8976 290.009 93.7442Z" fill="black" />
	<path d="M297.673 95.7627C296.99 95.5829 296.423 95.2779 295.972 94.8477C295.521 94.4175 295.215 93.8989 295.054 93.292C294.892 92.6851 294.903 92.0358 295.085 91.3442C295.27 90.6435 295.579 90.0585 296.014 89.5892C296.458 89.1223 296.979 88.807 297.577 88.6433C298.187 88.473 298.846 88.4813 299.556 88.6682C300.22 88.8432 300.769 89.1434 301.202 89.5689C301.635 89.9943 301.925 90.499 302.073 91.0829C302.232 91.6601 302.23 92.2581 302.067 92.8769C302.041 92.9771 302.009 93.0805 301.971 93.1873C301.942 93.2965 301.908 93.4091 301.868 93.525L296.721 92.1694C296.619 92.7068 296.692 93.1688 296.94 93.5554C297.198 93.9444 297.563 94.2012 298.036 94.3259C298.391 94.4193 298.707 94.4199 298.985 94.3275C299.274 94.2284 299.511 94.0671 299.696 93.8434L301.471 94.3109C301.231 94.705 300.914 95.04 300.52 95.3158C300.138 95.5849 299.702 95.762 299.212 95.8472C298.732 95.9347 298.219 95.9066 297.673 95.7627ZM299.182 90.0879C298.754 89.9752 298.344 89.9986 297.952 90.158C297.562 90.3083 297.257 90.6172 297.036 91.0846L300.408 91.9727C300.498 91.5196 300.428 91.1216 300.197 90.7786C299.966 90.4355 299.628 90.2053 299.182 90.0879Z" fill="black" />
	<path d="M244.613 100.438C244.103 100.304 243.683 100.091 243.351 99.7993C243.019 99.5075 242.78 99.1575 242.635 98.7494L242.199 99.6273L240.643 99.2174L243.232 89.3893L244.979 89.8495L243.918 93.8763C244.216 93.6335 244.572 93.4451 244.987 93.3111C245.411 93.1795 245.909 93.1892 246.483 93.3402C247.12 93.508 247.648 93.8125 248.067 94.2538C248.486 94.695 248.77 95.2224 248.92 95.836C249.07 96.4497 249.055 97.0977 248.875 97.7802C248.695 98.4627 248.389 99.0341 247.956 99.4943C247.526 99.9454 247.02 100.26 246.438 100.437C245.858 100.606 245.25 100.606 244.613 100.438ZM244.647 98.8124C245.202 98.9586 245.711 98.8931 246.173 98.6159C246.636 98.3387 246.945 97.9043 247.1 97.3128C247.256 96.7213 247.203 96.1865 246.939 95.7084C246.676 95.2303 246.267 94.9182 245.712 94.7719C245.147 94.6233 244.633 94.6922 244.168 94.9785C243.715 95.2581 243.411 95.6937 243.255 96.2852C243.099 96.8767 243.148 97.4103 243.402 97.886C243.668 98.355 244.083 98.6638 244.647 98.8124Z" fill="black" />
	<path d="M252.55 93.9895C252.231 93.9056 251.993 93.7405 251.834 93.4943C251.684 93.2505 251.647 92.983 251.724 92.6918C251.801 92.4006 251.963 92.1903 252.211 92.061C252.471 91.9251 252.76 91.899 253.078 91.9829C253.397 92.0668 253.631 92.2307 253.781 92.4745C253.942 92.7117 253.985 92.9758 253.908 93.267C253.831 93.5583 253.663 93.7718 253.403 93.9078C253.153 94.0462 252.868 94.0734 252.55 93.9895ZM249.616 101.581L251.399 94.8105L253.147 95.2707L251.363 102.041L249.616 101.581Z" fill="black" />
	<path d="M256.392 103.541C255.737 103.369 255.185 103.063 254.737 102.623C254.297 102.186 253.992 101.663 253.822 101.054C253.663 100.438 253.676 99.7795 253.86 99.0788C254.045 98.3781 254.361 97.8046 254.81 97.3583C255.26 96.9029 255.785 96.5933 256.383 96.4296C256.99 96.2684 257.621 96.274 258.276 96.4466C258.922 96.6168 259.465 96.9204 259.904 97.3573C260.353 97.7967 260.657 98.3243 260.816 98.9403C260.986 99.5496 260.979 100.205 260.794 100.905C260.61 101.606 260.292 102.184 259.841 102.64C259.402 103.088 258.879 103.393 258.272 103.554C257.665 103.716 257.039 103.711 256.392 103.541ZM256.792 102.026C257.247 102.146 257.687 102.082 258.112 101.834C258.54 101.577 258.843 101.111 259.02 100.438C259.197 99.7645 259.162 99.2151 258.914 98.7897C258.668 98.3552 258.323 98.0792 257.877 97.9618C257.413 97.8395 256.967 97.907 256.539 98.1641C256.123 98.4145 255.826 98.8764 255.648 99.5498C255.471 100.223 255.5 100.776 255.737 101.208C255.985 101.633 256.337 101.906 256.792 102.026Z" fill="black" />
	<path d="M260.674 107.705L263.248 97.9316L264.804 98.3415L264.74 99.361C265.038 99.1182 265.394 98.9299 265.809 98.7958C266.233 98.6642 266.731 98.6739 267.305 98.8249C267.942 98.9927 268.47 99.2972 268.889 99.7385C269.308 100.18 269.592 100.707 269.742 101.321C269.892 101.934 269.877 102.582 269.697 103.265C269.517 103.947 269.211 104.519 268.778 104.979C268.348 105.43 267.842 105.744 267.26 105.922C266.68 106.09 266.072 106.091 265.435 105.923C264.925 105.789 264.505 105.576 264.173 105.284C263.841 104.992 263.602 104.642 263.457 104.234L262.421 108.165L260.674 107.705ZM265.469 104.297C266.024 104.443 266.533 104.378 266.995 104.101C267.457 103.823 267.766 103.389 267.922 102.798C268.078 102.206 268.024 101.671 267.761 101.193C267.498 100.715 267.088 100.403 266.533 100.257C265.969 100.108 265.455 100.177 264.99 100.463C264.537 100.743 264.232 101.178 264.077 101.77C263.921 102.361 263.97 102.895 264.224 103.371C264.49 103.84 264.905 104.148 265.469 104.297Z" fill="black" />
	<path d="M273.125 107.949C272.524 107.79 272.021 107.556 271.617 107.245C271.214 106.925 270.922 106.556 270.74 106.138C270.559 105.72 270.5 105.277 270.565 104.808L272.326 105.271C272.311 105.55 272.397 105.815 272.583 106.069C272.781 106.316 273.071 106.489 273.453 106.59C273.835 106.691 274.133 106.686 274.347 106.577C274.57 106.471 274.708 106.317 274.76 106.117C274.837 105.826 274.761 105.596 274.533 105.429C274.307 105.253 273.979 105.055 273.551 104.835C273.276 104.694 273.001 104.539 272.725 104.369C272.448 104.199 272.201 104.012 271.982 103.808C271.774 103.598 271.622 103.363 271.525 103.104C271.43 102.836 271.426 102.538 271.512 102.21C271.671 101.61 272.04 101.167 272.621 100.882C273.211 100.6 273.939 100.572 274.803 100.8C275.604 101.011 276.192 101.365 276.567 101.863C276.951 102.363 277.102 102.953 277.021 103.632L275.369 103.197C275.401 102.67 275.089 102.321 274.434 102.148C274.106 102.062 273.834 102.058 273.619 102.138C273.412 102.22 273.284 102.356 273.234 102.547C273.181 102.747 273.271 102.941 273.504 103.129C273.736 103.317 274.058 103.518 274.468 103.734C274.913 103.967 275.313 104.204 275.668 104.444C276.035 104.677 276.302 104.956 276.469 105.282C276.639 105.6 276.66 105.999 276.533 106.482C276.432 106.903 276.223 107.251 275.907 107.528C275.59 107.805 275.193 107.983 274.715 108.061C274.237 108.139 273.707 108.102 273.125 107.949Z" fill="black" />
	<path d="M277.237 112.068L279.716 109.028L279.306 108.92L278.337 101.906L280.234 102.406L280.877 107.67L284.111 103.427L285.967 103.916L279.093 112.557L277.237 112.068Z" fill="black" />
	<path d="M285.012 111.007C284.693 110.923 284.456 110.753 284.299 110.498C284.152 110.245 284.115 109.978 284.19 109.695C284.266 109.404 284.431 109.185 284.684 109.037C284.946 108.892 285.236 108.862 285.555 108.946C285.873 109.03 286.106 109.198 286.254 109.451C286.41 109.706 286.45 109.98 286.374 110.271C286.299 110.553 286.131 110.766 285.869 110.911C285.616 111.059 285.33 111.091 285.012 111.007Z" fill="black" />
	<path d="M9.90168 16.4935C9.22412 16.4935 8.61244 16.3759 8.06663 16.1406C7.52082 15.8959 7.08323 15.5525 6.75386 15.1102C6.4339 14.6679 6.27393 14.155 6.27393 13.5715C6.27393 12.9693 6.4292 12.4423 6.73975 11.9906C7.0597 11.5389 7.47847 11.2142 7.99605 11.0166C7.54435 10.819 7.18675 10.5366 6.92325 10.1696C6.65976 9.79321 6.52801 9.37445 6.52801 8.91333C6.52801 8.4428 6.65505 8.00992 6.90914 7.61468C7.16322 7.21003 7.53964 6.88536 8.0384 6.64069C8.54657 6.39602 9.16766 6.27368 9.90168 6.27368C10.6357 6.27368 11.2521 6.39602 11.7508 6.64069C12.2496 6.88536 12.626 7.21003 12.8801 7.61468C13.1342 8.00992 13.2612 8.4428 13.2612 8.91333C13.2612 9.36504 13.1248 9.7838 12.8519 10.1696C12.5884 10.5461 12.2355 10.8284 11.7932 11.0166C12.3202 11.2142 12.739 11.5389 13.0495 11.9906C13.36 12.4423 13.5153 12.9693 13.5153 13.5715C13.5153 14.155 13.3553 14.6679 13.0354 15.1102C12.7154 15.5525 12.2778 15.8959 11.7226 16.1406C11.1768 16.3759 10.5698 16.4935 9.90168 16.4935ZM9.90168 10.4802C10.391 10.4802 10.7769 10.3531 11.0592 10.0991C11.3415 9.84497 11.4826 9.52031 11.4826 9.12507C11.4826 8.69218 11.3415 8.3534 11.0592 8.10873C10.7863 7.86406 10.4004 7.74172 9.90168 7.74172C9.39351 7.74172 9.00298 7.86406 8.73007 8.10873C8.45717 8.3534 8.32071 8.69218 8.32071 9.12507C8.32071 9.52972 8.45717 9.85909 8.73007 10.1132C9.01239 10.3578 9.40292 10.4802 9.90168 10.4802ZM9.90168 14.9831C10.504 14.9831 10.9604 14.8373 11.2709 14.5455C11.5815 14.2444 11.7367 13.868 11.7367 13.4163C11.7367 12.9175 11.572 12.527 11.2427 12.2447C10.9227 11.9623 10.4757 11.8212 9.90168 11.8212C9.32764 11.8212 8.87123 11.9623 8.53245 12.2447C8.20308 12.527 8.0384 12.9175 8.0384 13.4163C8.0384 13.868 8.19367 14.2444 8.50422 14.5455C8.82418 14.8373 9.29 14.9831 9.90168 14.9831Z" fill="black" />
	<path d="M19.8096 16.3241V14.4891H14.9397V13.0493L19.5697 6.44307H21.6164V12.9222H22.9151V14.4891H21.6164V16.3241H19.8096ZM16.8735 12.9222H19.9226V8.43339L16.8735 12.9222Z" fill="black" />
	<path d="M28.8525 16.3241V14.4891H23.9826V13.0493L28.6126 6.44307H30.6594V12.9222H31.958V14.4891H30.6594V16.3241H28.8525ZM25.9165 12.9222H28.9655V8.43339L25.9165 12.9222Z" fill="black" />
	<path d="M35.0948 16.3241V6.44308H37.2404L40.3882 12.7105L43.4937 6.44308H45.6393V16.3241H43.8325V9.5062L41.0799 14.9125H39.6542L36.9016 9.5062V16.3241H35.0948Z" fill="black" />
	<path d="M47.5564 16.3241V6.44308H54.0073V7.897H49.3632V10.6072H53.5838V12.0188H49.3632V14.8702H54.0073V16.3241H47.5564Z" fill="black" />
	<path d="M55.7171 16.3241V6.44308H57.5239V14.9125H61.8998V16.3241H55.7171Z" fill="black" />
	<path d="M62.8566 16.3241L66.4702 6.44308H68.5029L72.1165 16.3241H70.1968L69.4063 14.0374H65.5527L64.7481 16.3241H62.8566ZM66.0467 12.6258H68.9122L67.4724 8.51809L66.0467 12.6258Z" fill="black" />
	<path d="M73.3893 16.3241V6.44308H75.1962L79.8402 13.4022V6.44308H81.6471V16.3241H79.8402L75.1962 9.37916V16.3241H73.3893Z" fill="black" />
	<path d="M88.1926 16.4935C87.2045 16.4935 86.3387 16.2771 85.5953 15.8442C84.8613 15.4113 84.2825 14.8137 83.8591 14.0515C83.445 13.2798 83.238 12.3905 83.238 11.3836C83.238 10.3767 83.445 9.49208 83.8591 8.72983C84.2825 7.95817 84.8613 7.3559 85.5953 6.92301C86.3387 6.49013 87.2045 6.27369 88.1926 6.27369C89.1713 6.27369 90.0324 6.49013 90.7758 6.92301C91.5192 7.3559 92.098 7.95817 92.512 8.72983C92.9261 9.49208 93.1331 10.3767 93.1331 11.3836C93.1331 12.3905 92.9261 13.2798 92.512 14.0515C92.098 14.8137 91.5192 15.4113 90.7758 15.8442C90.0324 16.2771 89.1713 16.4935 88.1926 16.4935ZM88.1926 14.8702C89.1337 14.8702 89.8818 14.5596 90.437 13.9386C91.0016 13.3175 91.284 12.4658 91.284 11.3836C91.284 10.3014 91.0016 9.44974 90.437 8.82864C89.8818 8.20755 89.1337 7.897 88.1926 7.897C87.2515 7.897 86.4987 8.20755 85.9341 8.82864C85.3694 9.44974 85.0871 10.3014 85.0871 11.3836C85.0871 12.4658 85.3694 13.3175 85.9341 13.9386C86.4987 14.5596 87.2515 14.8702 88.1926 14.8702Z" fill="black" />
	<path d="M94.7284 16.3241V6.44308H96.874L100.022 12.7105L103.127 6.44308H105.273V16.3241H103.466V9.5062L100.714 14.9125H99.2878L96.5352 9.5062V16.3241H94.7284Z" fill="black" />
	<path d="M106.555 16.3241L110.168 6.44308H112.201L115.815 16.3241H113.895L113.105 14.0374H109.251L108.446 16.3241H106.555ZM109.745 12.6258H112.61L111.171 8.51809L109.745 12.6258Z" fill="black" />
	<path d="M120.451 16.3241V6.44308H122.258V16.3241H120.451Z" fill="black" />
	<path d="M124.173 16.3241V6.44308H125.98L130.624 13.4022V6.44308H132.431V16.3241H130.624L125.98 9.37916V16.3241H124.173Z" fill="black" />
	<path d="M134.346 16.3241V6.44308H137.72C138.877 6.44308 139.828 6.65011 140.571 7.06417C141.324 7.46882 141.879 8.04286 142.237 8.78629C142.604 9.52031 142.788 10.3861 142.788 11.3836C142.788 12.3811 142.604 13.2516 142.237 13.995C141.879 14.729 141.324 15.3031 140.571 15.7171C139.828 16.1218 138.877 16.3241 137.72 16.3241H134.346ZM136.153 14.7714H137.635C138.463 14.7714 139.117 14.6396 139.597 14.3761C140.077 14.1032 140.421 13.7174 140.628 13.2186C140.835 12.7105 140.938 12.0988 140.938 11.3836C140.938 10.6778 140.835 10.0708 140.628 9.56266C140.421 9.05449 140.077 8.66396 139.597 8.39105C139.117 8.11815 138.463 7.98169 137.635 7.98169H136.153V14.7714Z" fill="black" />
	<path d="M144.382 16.3241V6.44308H150.833V7.897H146.189V10.6072H150.409V12.0188H146.189V14.8702H150.833V16.3241H144.382Z" fill="black" />
	<path d="M152.062 16.3241L155.154 11.3271L152.02 6.44308H154.095L156.311 9.88732L158.344 6.44308H160.377L157.285 11.4118L160.447 16.3241H158.372L156.128 12.8375L154.095 16.3241H152.062Z" fill="black" />
	<path d="M7.58671 32.8176L11.4121 24.2211H6.27395V22.9366H12.9507V24.0235L9.15356 32.8176H7.58671Z" fill="black" />
	<path d="M17.6299 32.987C16.9711 32.987 16.3736 32.8694 15.8372 32.6341C15.3102 32.3894 14.8867 32.0507 14.5667 31.6178C14.2562 31.1849 14.1009 30.6767 14.1009 30.0933C14.1009 29.5004 14.2656 28.9687 14.595 28.4982C14.9338 28.0277 15.3808 27.7077 15.936 27.5383C15.4372 27.3407 15.0514 27.0537 14.7785 26.6772C14.5056 26.2914 14.3691 25.8679 14.3691 25.4068C14.3691 24.9269 14.4962 24.4893 14.7502 24.0941C15.0043 23.6894 15.3713 23.3694 15.8513 23.1342C16.3406 22.8895 16.9335 22.7672 17.6299 22.7672C18.3262 22.7672 18.9144 22.8895 19.3943 23.1342C19.8837 23.3694 20.2554 23.6894 20.5095 24.0941C20.7636 24.4893 20.8906 24.9269 20.8906 25.4068C20.8906 25.8585 20.7495 26.282 20.4671 26.6772C20.1942 27.0631 19.8084 27.3501 19.3096 27.5383C19.8649 27.7171 20.3072 28.0418 20.6365 28.5123C20.9753 28.9734 21.1447 29.5004 21.1447 30.0933C21.1447 30.6767 20.9894 31.1849 20.6789 31.6178C20.3683 32.0507 19.9449 32.3894 19.4085 32.6341C18.8815 32.8694 18.2886 32.987 17.6299 32.987ZM17.6299 27.0584C18.1757 27.0584 18.6039 26.9172 18.9144 26.6349C19.2344 26.3526 19.3943 25.9903 19.3943 25.548C19.3943 25.0492 19.2391 24.6681 18.9285 24.4046C18.618 24.1411 18.1851 24.0094 17.6299 24.0094C17.0746 24.0094 16.6418 24.1411 16.3312 24.4046C16.0207 24.6681 15.8654 25.0492 15.8654 25.548C15.8654 25.9903 16.0207 26.3526 16.3312 26.6349C16.6418 26.9172 17.0746 27.0584 17.6299 27.0584ZM17.6299 31.7166C18.3074 31.7166 18.8156 31.5566 19.1544 31.2366C19.4931 30.9073 19.6625 30.4885 19.6625 29.9803C19.6625 29.4157 19.479 28.9828 19.112 28.6817C18.7544 28.3711 18.2604 28.2159 17.6299 28.2159C16.9994 28.2159 16.5006 28.3711 16.1336 28.6817C15.7666 28.9828 15.5831 29.4157 15.5831 29.9803C15.5831 30.4885 15.7525 30.9073 16.0912 31.2366C16.4394 31.5566 16.9523 31.7166 17.6299 31.7166Z" fill="black" />
	<path d="M26.4539 32.987C25.7575 32.987 25.1552 32.8647 24.6471 32.62C24.1389 32.3659 23.7342 32.0224 23.4331 31.5895C23.1414 31.1472 22.9626 30.6485 22.8967 30.0933H24.3647C24.4588 30.5638 24.6941 30.9543 25.0705 31.2649C25.447 31.566 25.9128 31.7166 26.468 31.7166C26.8821 31.7166 27.2397 31.6178 27.5408 31.4201C27.8419 31.2131 28.0772 30.9402 28.2466 30.6014C28.416 30.2627 28.5007 29.8815 28.5007 29.4581C28.5007 28.7899 28.3125 28.2582 27.936 27.863C27.5596 27.4583 27.0844 27.256 26.5103 27.256C26.021 27.256 25.6022 27.3736 25.254 27.6089C24.9058 27.8347 24.6518 28.1218 24.4918 28.4699H23.0661L23.913 22.9366H29.2488V24.2493H25.0423L24.5341 26.889C24.7506 26.6443 25.047 26.442 25.4234 26.282C25.8093 26.1126 26.2421 26.0279 26.7221 26.0279C27.3902 26.0279 27.9643 26.1832 28.4442 26.4937C28.9241 26.7949 29.2911 27.2042 29.5452 27.7218C29.8087 28.2394 29.9405 28.8134 29.9405 29.4439C29.9405 30.1027 29.7993 30.7002 29.517 31.2366C29.2347 31.773 28.83 32.2012 28.303 32.5212C27.7855 32.8317 27.1691 32.987 26.4539 32.987Z" fill="black" />
	<path d="M33.0772 32.8176L36.7191 22.9366H38.3565L41.9701 32.8176H40.3892L39.5422 30.4038H35.5051L34.6582 32.8176H33.0772ZM35.9286 29.2181H39.1188L37.5237 24.7151L35.9286 29.2181Z" fill="black" />
	<path d="M46.6088 32.987C45.8842 32.987 45.249 32.8599 44.7032 32.6059C44.1574 32.3518 43.7292 31.9895 43.4187 31.5189C43.1175 31.0484 42.9623 30.4885 42.9528 29.8392H44.5338C44.5432 30.3662 44.7267 30.8132 45.0843 31.1802C45.4419 31.5472 45.9454 31.7307 46.5947 31.7307C47.1688 31.7307 47.6158 31.5942 47.9357 31.3213C48.2651 31.039 48.4298 30.6814 48.4298 30.2485C48.4298 29.9003 48.3498 29.618 48.1898 29.4016C48.0392 29.1851 47.8275 29.0063 47.5546 28.8652C47.2911 28.724 46.9852 28.597 46.6371 28.4841C46.2889 28.3711 45.9219 28.2488 45.536 28.117C44.7738 27.863 44.1997 27.5336 43.8139 27.1289C43.4375 26.7243 43.2493 26.1926 43.2493 25.5339C43.2399 24.9786 43.3669 24.494 43.6304 24.0799C43.9033 23.6659 44.2797 23.3459 44.7597 23.1201C45.249 22.8848 45.8183 22.7672 46.4677 22.7672C47.1076 22.7672 47.6675 22.8848 48.1474 23.1201C48.6368 23.3553 49.0179 23.6847 49.2908 24.1082C49.5637 24.5222 49.7049 25.0069 49.7143 25.5621H48.1333C48.1333 25.308 48.0675 25.068 47.9357 24.8422C47.804 24.6069 47.611 24.414 47.357 24.2634C47.1029 24.1129 46.7923 24.0376 46.4253 24.0376C45.9548 24.0282 45.5643 24.1458 45.2537 24.3905C44.9526 24.6352 44.802 24.9739 44.802 25.4068C44.802 25.7926 44.9149 26.0891 45.1408 26.2961C45.3666 26.5031 45.6772 26.6772 46.0724 26.8184C46.4677 26.9501 46.9194 27.1054 47.4275 27.2842C47.9169 27.4442 48.3545 27.6371 48.7403 27.863C49.1261 28.0888 49.432 28.3852 49.6578 28.7523C49.8931 29.1193 50.0107 29.5851 50.0107 30.1497C50.0107 30.6485 49.8837 31.1143 49.6296 31.5472C49.3755 31.9707 48.9944 32.3188 48.4862 32.5917C47.9781 32.8552 47.3523 32.987 46.6088 32.987Z" fill="black" />
	<path d="M53.7319 32.8176V29.1757L50.457 22.9366H52.1509L54.48 27.7077L56.795 22.9366H58.4748L55.2282 29.1757V32.8176H53.7319Z" fill="black" />
	<path d="M59.7108 32.8176V22.9366H61.4753L64.8207 29.5145L68.152 22.9366H69.9165V32.8176H68.4202V25.5197L65.3995 31.406H64.242L61.2071 25.5339V32.8176H59.7108Z" fill="black" />
	<path d="M71.9243 32.8176V22.9366H73.6887L77.0342 29.5145L80.3655 22.9366H82.13V32.8176H80.6337V25.5197L77.6129 31.406H76.4554L73.4205 25.5339V32.8176H71.9243Z" fill="black" />
	<path d="M84.1377 32.8176V22.9366H90.4192V24.1505H85.634V27.2278H89.9958V28.4135H85.634V31.6036H90.4192V32.8176H84.1377Z" fill="black" />
	<path d="M94.5169 32.8176V24.1505H91.5949V22.9366H98.921V24.1505H96.0132V32.8176H94.5169Z" fill="black" />
	<path d="M100.321 32.8176V22.9366H103.723C104.504 22.9366 105.144 23.0683 105.643 23.3318C106.151 23.5953 106.527 23.9529 106.772 24.4046C107.017 24.8469 107.139 25.3409 107.139 25.8868C107.139 26.4984 106.974 27.0537 106.645 27.5524C106.325 28.0512 105.822 28.4088 105.135 28.6252L107.238 32.8176H105.502L103.582 28.837H101.817V32.8176H100.321ZM101.817 27.7077H103.638C104.316 27.7077 104.81 27.543 105.121 27.2136C105.441 26.8843 105.601 26.4561 105.601 25.9291C105.601 25.4021 105.445 24.9833 105.135 24.6728C104.824 24.3528 104.321 24.1929 103.624 24.1929H101.817V27.7077Z" fill="black" />
	<path d="M111.05 32.8176V29.1757L107.775 22.9366H109.469L111.798 27.7077L114.113 22.9366H115.793L112.546 29.1757V32.8176H111.05Z" fill="black" />
	<path d="M120.585 32.8176V22.9366H122.081V32.8176H120.585Z" fill="black" />
	<path d="M124.086 32.8176V22.9366H125.583L130.537 30.3756V22.9366H132.034V32.8176H130.537L125.583 25.3786V32.8176H124.086Z" fill="black" />
	<path d="M134.039 32.8176V22.9366H137.243C138.401 22.9366 139.351 23.1389 140.095 23.5435C140.848 23.9482 141.403 24.5222 141.76 25.2657C142.128 25.9997 142.311 26.8749 142.311 27.8912C142.311 28.8981 142.128 29.7733 141.76 30.5167C141.403 31.2507 140.848 31.8201 140.095 32.2247C139.351 32.62 138.401 32.8176 137.243 32.8176H134.039ZM135.535 31.5472H137.187C138.081 31.5472 138.787 31.4013 139.304 31.1096C139.831 30.8179 140.208 30.3991 140.434 29.8533C140.669 29.3075 140.787 28.6534 140.787 27.8912C140.787 27.1289 140.669 26.4702 140.434 25.915C140.208 25.3598 139.831 24.9363 139.304 24.6446C138.787 24.3434 138.081 24.1929 137.187 24.1929H135.535V31.5472Z" fill="black" />
	<path d="M143.964 32.8176V22.9366H150.246V24.1505H145.461V27.2278H149.822V28.4135H145.461V31.6036H150.246V32.8176H143.964Z" fill="black" />
	<path d="M151.534 32.8176L154.583 27.8206L151.506 22.9366H153.214L155.543 26.6349L157.717 22.9366H159.397L156.334 27.8912L159.439 32.8176H157.731L155.388 29.091L153.214 32.8176H151.534Z" fill="black" />
	<path d="M11.2286 49.3958V47.4196H6.27393V46.2339L10.9886 39.5148H12.7107V46.1209H14.0941V47.4196H12.7107V49.3958H11.2286ZM7.89724 46.1209H11.3133V41.1663L7.89724 46.1209Z" fill="black" />
	<path d="M16.2121 49.3958L20.0375 40.7993H14.8993V39.5148H21.5761V40.6017L17.7789 49.3958H16.2121Z" fill="black" />
	<path d="M22.6012 49.3958V48.323C23.2412 47.8148 23.8528 47.302 24.4363 46.7844C25.0197 46.2668 25.5373 45.7586 25.989 45.2599C26.4501 44.7517 26.8125 44.2577 27.0759 43.7777C27.3394 43.2884 27.4712 42.8179 27.4712 42.3661C27.4712 42.065 27.4194 41.7827 27.3159 41.5192C27.2124 41.2463 27.043 41.0299 26.8077 40.8699C26.5725 40.7005 26.2572 40.6158 25.862 40.6158C25.2691 40.6158 24.8221 40.804 24.521 41.1804C24.2293 41.5568 24.0881 42.0085 24.0975 42.5355H22.6436C22.653 41.8392 22.7989 41.2557 23.0812 40.7852C23.3729 40.3147 23.7587 39.9571 24.2387 39.7124C24.728 39.4677 25.2785 39.3454 25.8902 39.3454C26.8219 39.3454 27.5653 39.6089 28.1205 40.1359C28.6851 40.6534 28.9675 41.378 28.9675 42.3097C28.9675 42.8649 28.831 43.4154 28.5581 43.9612C28.2946 44.507 27.9464 45.034 27.5135 45.5422C27.0901 46.041 26.6337 46.5115 26.1443 46.9538C25.655 47.3961 25.1891 47.796 24.7468 48.1536H29.2639V49.3958H22.6012Z" fill="black" />
	<path d="M32.4006 49.3111V39.4301H36.1272C37.1529 39.4301 37.9293 39.6701 38.4563 40.15C38.9833 40.6299 39.2468 41.2322 39.2468 41.9568C39.2468 42.5873 39.0774 43.0908 38.7386 43.4672C38.3998 43.8342 37.9904 44.0836 37.5105 44.2153C37.8869 44.2906 38.221 44.4412 38.5127 44.667C38.8139 44.8929 39.0491 45.1752 39.2185 45.514C39.3879 45.8528 39.4726 46.2198 39.4726 46.615C39.4726 47.1232 39.3456 47.5843 39.0915 47.9984C38.8468 48.403 38.4845 48.723 38.0046 48.9582C37.5246 49.1935 36.9365 49.3111 36.2401 49.3111H32.4006ZM33.8969 43.6648H35.9437C36.5177 43.6648 36.9553 43.5331 37.2564 43.2696C37.5576 42.9967 37.7081 42.625 37.7081 42.1544C37.7081 41.6933 37.5576 41.3263 37.2564 41.0534C36.9647 40.7805 36.5177 40.6441 35.9154 40.6441H33.8969V43.6648ZM33.8969 48.0831H36.0425C36.6447 48.0831 37.1106 47.9419 37.4399 47.6596C37.7787 47.3773 37.9481 46.982 37.9481 46.4739C37.9481 45.9657 37.774 45.5658 37.4258 45.274C37.0776 44.9729 36.6071 44.8223 36.0142 44.8223H33.8969V48.0831Z" fill="black" />
	<path d="M45.6721 49.4805C44.6934 49.4805 43.837 49.2641 43.103 48.8312C42.369 48.3983 41.7949 47.8008 41.3809 47.0385C40.9668 46.2668 40.7598 45.3775 40.7598 44.3706C40.7598 43.3637 40.9668 42.4791 41.3809 41.7169C41.7949 40.9452 42.369 40.3429 43.103 39.91C43.837 39.4771 44.6934 39.2607 45.6721 39.2607C46.6508 39.2607 47.5071 39.4771 48.2411 39.91C48.9752 40.3429 49.5445 40.9452 49.9492 41.7169C50.3632 42.4791 50.5702 43.3637 50.5702 44.3706C50.5702 45.3775 50.3632 46.2668 49.9492 47.0385C49.5445 47.8008 48.9752 48.3983 48.2411 48.8312C47.5071 49.2641 46.6508 49.4805 45.6721 49.4805ZM45.6721 48.1395C46.3496 48.1395 46.9378 47.989 47.4365 47.6878C47.9447 47.3867 48.34 46.9538 48.6223 46.3892C48.9046 45.8245 49.0457 45.1517 49.0457 44.3706C49.0457 43.5895 48.9046 42.9167 48.6223 42.3521C48.34 41.7874 47.9447 41.3545 47.4365 41.0534C46.9378 40.7523 46.3496 40.6017 45.6721 40.6017C44.9945 40.6017 44.4017 40.7523 43.8935 41.0534C43.3853 41.3545 42.9901 41.7874 42.7078 42.3521C42.4349 42.9167 42.2984 43.5895 42.2984 44.3706C42.2984 45.1517 42.4349 45.8245 42.7078 46.3892C42.9901 46.9538 43.3853 47.3867 43.8935 47.6878C44.4017 47.989 44.9945 48.1395 45.6721 48.1395Z" fill="black" />
	<path d="M52.2371 49.3111V39.4301H55.639C56.4201 39.4301 57.06 39.5618 57.5588 39.8253C58.0669 40.0888 58.4434 40.4464 58.688 40.8981C58.9327 41.3404 59.055 41.8345 59.055 42.3803C59.055 42.992 58.8904 43.5472 58.561 44.046C58.241 44.5447 57.7376 44.9023 57.0506 45.1188L59.1539 49.3111H57.4176L55.4979 45.3305H53.7334V49.3111H52.2371ZM53.7334 44.2012H55.5543C56.2319 44.2012 56.7259 44.0365 57.0365 43.7072C57.3564 43.3778 57.5164 42.9496 57.5164 42.4226C57.5164 41.8956 57.3612 41.4769 57.0506 41.1663C56.7401 40.8464 56.2366 40.6864 55.5402 40.6864H53.7334V44.2012Z" fill="black" />
	<path d="M60.8251 49.3111V39.4301H64.0294C65.1869 39.4301 66.1374 39.6324 66.8808 40.0371C67.6336 40.4417 68.1889 41.0158 68.5465 41.7592C68.9135 42.4932 69.097 43.3684 69.097 44.3847C69.097 45.3917 68.9135 46.2668 68.5465 47.0103C68.1889 47.7443 67.6336 48.3136 66.8808 48.7183C66.1374 49.1135 65.1869 49.3111 64.0294 49.3111H60.8251ZM62.3214 48.0407H63.973C64.867 48.0407 65.5727 47.8949 66.0903 47.6031C66.6173 47.3114 66.9937 46.8926 67.2196 46.3468C67.4548 45.801 67.5725 45.147 67.5725 44.3847C67.5725 43.6225 67.4548 42.9637 67.2196 42.4085C66.9937 41.8533 66.6173 41.4298 66.0903 41.1381C65.5727 40.837 64.867 40.6864 63.973 40.6864H62.3214V48.0407Z" fill="black" />
	<path d="M70.7503 49.3111V39.4301H77.0318V40.6441H72.2466V43.7213H76.6083V44.907H72.2466V48.0972H77.0318V49.3111H70.7503Z" fill="black" />
	<path d="M78.8145 49.3111V39.4301H82.2164C82.9975 39.4301 83.6374 39.5618 84.1361 39.8253C84.6443 40.0888 85.0207 40.4464 85.2654 40.8981C85.5101 41.3404 85.6324 41.8345 85.6324 42.3803C85.6324 42.992 85.4677 43.5472 85.1384 44.046C84.8184 44.5447 84.3149 44.9023 83.628 45.1188L85.7312 49.3111H83.995L82.0752 45.3305H80.3108V49.3111H78.8145ZM80.3108 44.2012H82.1317C82.8092 44.2012 83.3033 44.0365 83.6138 43.7072C83.9338 43.3778 84.0938 42.9496 84.0938 42.4226C84.0938 41.8956 83.9385 41.4769 83.628 41.1663C83.3174 40.8464 82.8139 40.6864 82.1176 40.6864H80.3108V44.2012Z" fill="black" />
	<path d="M90.959 49.3111V39.4301H92.4553V49.3111H90.959Z" fill="black" />
	<path d="M94.4604 49.3111V39.4301H95.9566L100.911 46.8691V39.4301H102.408V49.3111H100.911L95.9566 41.8721V49.3111H94.4604Z" fill="black" />
	<path d="M104.413 49.3111V39.4301H107.617C108.775 39.4301 109.725 39.6324 110.469 40.0371C111.222 40.4417 111.777 41.0158 112.134 41.7592C112.501 42.4932 112.685 43.3684 112.685 44.3847C112.685 45.3917 112.501 46.2668 112.134 47.0103C111.777 47.7443 111.222 48.3136 110.469 48.7183C109.725 49.1135 108.775 49.3111 107.617 49.3111H104.413ZM105.909 48.0407H107.561C108.455 48.0407 109.161 47.8949 109.678 47.6031C110.205 47.3114 110.582 46.8926 110.808 46.3468C111.043 45.801 111.16 45.147 111.16 44.3847C111.16 43.6225 111.043 42.9637 110.808 42.4085C110.582 41.8533 110.205 41.4298 109.678 41.1381C109.161 40.837 108.455 40.6864 107.561 40.6864H105.909V48.0407Z" fill="black" />
	<path d="M114.338 49.3111V39.4301H120.62V40.6441H115.835V43.7213H120.196V44.907H115.835V48.0972H120.62V49.3111H114.338Z" fill="black" />
	<path d="M121.908 49.3111L124.957 44.3142L121.88 39.4301H123.588L125.917 43.1284L128.091 39.4301H129.771L126.708 44.3847L129.813 49.3111H128.105L125.762 45.5846L123.588 49.3111H121.908Z" fill="black" />
	<path d="M9.74641 65.974C9.09708 65.974 8.54186 65.847 8.08075 65.5929C7.61963 65.3388 7.25733 65 6.99383 64.5765C6.73975 64.1531 6.58447 63.692 6.52801 63.1932H7.92547C8.01017 63.6825 8.21249 64.059 8.53245 64.3225C8.85241 64.586 9.26177 64.7177 9.76052 64.7177C10.4475 64.7177 11.0121 64.3977 11.4544 63.7578C11.9061 63.1085 12.1461 62.1157 12.1743 60.7794C11.9485 61.1935 11.5956 61.5464 11.1156 61.8381C10.6451 62.1298 10.0993 62.2757 9.47821 62.2757C8.92299 62.2757 8.4007 62.1439 7.91136 61.8804C7.42201 61.6169 7.02677 61.2499 6.72563 60.7794C6.4245 60.2995 6.27393 59.7348 6.27393 59.0855C6.27393 58.5115 6.41508 57.9704 6.6974 57.4622C6.97972 56.954 7.37496 56.5447 7.88312 56.2341C8.4007 55.9142 9.01239 55.7542 9.71818 55.7542C10.4428 55.7542 11.0545 55.8906 11.5532 56.1635C12.052 56.4364 12.4519 56.7988 12.7531 57.2505C13.0542 57.7022 13.2706 58.2103 13.4024 58.775C13.5436 59.3396 13.6141 59.9183 13.6141 60.5112C13.6141 61.6028 13.4589 62.558 13.1483 63.3767C12.8472 64.1954 12.4096 64.8353 11.8355 65.2964C11.2615 65.7481 10.5651 65.974 9.74641 65.974ZM9.81699 60.9911C10.2122 60.9911 10.5651 60.9017 10.8757 60.7229C11.1862 60.5441 11.4309 60.3089 11.6097 60.0171C11.7979 59.716 11.892 59.3866 11.892 59.029C11.892 58.6432 11.7979 58.3044 11.6097 58.0127C11.4309 57.7116 11.1815 57.4763 10.8616 57.3069C10.551 57.1375 10.1981 57.0528 9.80287 57.0528C9.40763 57.0528 9.05473 57.1375 8.74419 57.3069C8.43364 57.4763 8.18426 57.7116 7.99605 58.0127C7.81725 58.3044 7.72785 58.6385 7.72785 59.0149C7.72785 59.6172 7.92547 60.0971 8.32071 60.4547C8.71596 60.8123 9.21471 60.9911 9.81699 60.9911Z" fill="black" />
	<path d="M19.3005 65.974C18.4065 65.974 17.6348 65.7623 16.9855 65.3388C16.3456 64.9059 15.8515 64.3083 15.5033 63.5461C15.1645 62.7744 14.9952 61.8804 14.9952 60.8641C14.9952 59.8478 15.1645 58.9585 15.5033 58.1962C15.8515 57.4245 16.3456 56.827 16.9855 56.4035C17.6348 55.9706 18.4065 55.7542 19.3005 55.7542C20.1945 55.7542 20.9614 55.9706 21.6013 56.4035C22.2413 56.827 22.7306 57.4245 23.0694 58.1962C23.4176 58.9585 23.5917 59.8478 23.5917 60.8641C23.5917 61.8804 23.4176 62.7744 23.0694 63.5461C22.7306 64.3083 22.2413 64.9059 21.6013 65.3388C20.9614 65.7623 20.1945 65.974 19.3005 65.974ZM19.3005 64.633C19.8369 64.633 20.3121 64.4824 20.7262 64.1813C21.1496 63.8802 21.479 63.4473 21.7143 62.8827C21.9495 62.318 22.0672 61.6452 22.0672 60.8641C22.0672 60.083 21.9495 59.4102 21.7143 58.8455C21.479 58.2809 21.1496 57.848 20.7262 57.5469C20.3121 57.2458 19.8369 57.0952 19.3005 57.0952C18.7547 57.0952 18.2747 57.2458 17.8607 57.5469C17.4466 57.848 17.1219 58.2809 16.8867 58.8455C16.6514 59.4102 16.5338 60.083 16.5338 60.8641C16.5338 61.6452 16.6514 62.318 16.8867 62.8827C17.1219 63.4473 17.4466 63.8802 17.8607 64.1813C18.2747 64.4824 18.7547 64.633 19.3005 64.633Z" fill="black" />
	<path d="M28.4214 65.974C27.7814 65.974 27.198 65.8611 26.671 65.6352C26.1534 65.4 25.7394 65.0471 25.4288 64.5765C25.1183 64.106 24.9536 63.5179 24.9348 62.8121H26.4169C26.4357 63.3391 26.6145 63.7861 26.9533 64.1531C27.3015 64.5107 27.7909 64.6895 28.4214 64.6895C29.0236 64.6895 29.4847 64.5248 29.8047 64.1954C30.1247 63.8566 30.2846 63.4379 30.2846 62.9391C30.2846 62.3368 30.0682 61.8898 29.6353 61.5981C29.2118 61.3064 28.6896 61.1605 28.0685 61.1605H27.3344V59.9183H28.0826C28.6378 59.9183 29.0848 59.7866 29.4236 59.5231C29.7718 59.2596 29.9459 58.8879 29.9459 58.4079C29.9459 58.0033 29.8094 57.6739 29.5365 57.4198C29.273 57.1658 28.8966 57.0387 28.4072 57.0387C27.8991 57.0387 27.4991 57.1893 27.2074 57.4904C26.9157 57.7822 26.7557 58.1492 26.7275 58.5915H25.2453C25.2641 58.0174 25.4053 57.5187 25.6688 57.0952C25.9417 56.6717 26.3134 56.3423 26.7839 56.1071C27.2545 55.8718 27.7956 55.7542 28.4072 55.7542C29.066 55.7542 29.6165 55.8718 30.0588 56.1071C30.5105 56.3329 30.8493 56.6435 31.0751 57.0387C31.3104 57.4245 31.428 57.848 31.428 58.3091C31.428 58.8361 31.2822 59.2972 30.9904 59.6925C30.6987 60.0877 30.3082 60.3512 29.8188 60.483C30.3834 60.6053 30.8493 60.8829 31.2163 61.3158C31.5833 61.7393 31.7668 62.2898 31.7668 62.9673C31.7668 63.5132 31.6397 64.0166 31.3857 64.4777C31.1316 64.9294 30.7552 65.2917 30.2564 65.5646C29.7576 65.8376 29.146 65.974 28.4214 65.974Z" fill="black" />
	<path d="M39.6607 65.974C38.682 65.974 37.8351 65.7623 37.1199 65.3388C36.4141 64.9059 35.8683 64.3083 35.4825 63.5461C35.0966 62.7744 34.9037 61.8851 34.9037 60.8782C34.9037 59.8619 35.0966 58.9726 35.4825 58.2103C35.8683 57.4387 36.4141 56.8364 37.1199 56.4035C37.8351 55.9706 38.682 55.7542 39.6607 55.7542C40.8182 55.7542 41.764 56.0365 42.498 56.6011C43.232 57.1658 43.6978 57.9562 43.8955 58.9726H42.2298C42.098 58.3985 41.8157 57.9421 41.3828 57.6033C40.95 57.2646 40.3712 57.0952 39.6466 57.0952C38.6585 57.0952 37.8774 57.434 37.3034 58.1115C36.7293 58.7797 36.4423 59.7019 36.4423 60.8782C36.4423 62.0451 36.7293 62.9626 37.3034 63.6308C37.8774 64.2989 38.6585 64.633 39.6466 64.633C40.3712 64.633 40.95 64.473 41.3828 64.1531C41.8157 63.8331 42.098 63.3955 42.2298 62.8403H43.8955C43.6978 63.819 43.232 64.586 42.498 65.1412C41.764 65.6964 40.8182 65.974 39.6607 65.974Z" fill="black" />
	<path d="M50.0996 65.974C49.1209 65.974 48.2645 65.7576 47.5305 65.3247C46.7965 64.8918 46.2224 64.2942 45.8084 63.532C45.3943 62.7603 45.1873 61.871 45.1873 60.8641C45.1873 59.8572 45.3943 58.9726 45.8084 58.2103C46.2224 57.4387 46.7965 56.8364 47.5305 56.4035C48.2645 55.9706 49.1209 55.7542 50.0996 55.7542C51.0783 55.7542 51.9346 55.9706 52.6686 56.4035C53.4026 56.8364 53.972 57.4387 54.3766 58.2103C54.7907 58.9726 54.9977 59.8572 54.9977 60.8641C54.9977 61.871 54.7907 62.7603 54.3766 63.532C53.972 64.2942 53.4026 64.8918 52.6686 65.3247C51.9346 65.7576 51.0783 65.974 50.0996 65.974ZM50.0996 64.633C50.7771 64.633 51.3653 64.4824 51.864 64.1813C52.3722 63.8802 52.7674 63.4473 53.0498 62.8827C53.3321 62.318 53.4732 61.6452 53.4732 60.8641C53.4732 60.083 53.3321 59.4102 53.0498 58.8455C52.7674 58.2809 52.3722 57.848 51.864 57.5469C51.3653 57.2458 50.7771 57.0952 50.0996 57.0952C49.422 57.0952 48.8291 57.2458 48.321 57.5469C47.8128 57.848 47.4176 58.2809 47.1352 58.8455C46.8623 59.4102 46.7259 60.083 46.7259 60.8641C46.7259 61.6452 46.8623 62.318 47.1352 62.8827C47.4176 63.4473 47.8128 63.8802 48.321 64.1813C48.8291 64.4824 49.422 64.633 50.0996 64.633Z" fill="black" />
	<path d="M56.6646 65.8046V55.9236H58.1609V64.6189H62.6497V65.8046H56.6646Z" fill="black" />
	<path d="M67.9097 65.974C66.931 65.974 66.0746 65.7576 65.3406 65.3247C64.6066 64.8918 64.0326 64.2942 63.6185 63.532C63.2044 62.7603 62.9974 61.871 62.9974 60.8641C62.9974 59.8572 63.2044 58.9726 63.6185 58.2103C64.0326 57.4387 64.6066 56.8364 65.3406 56.4035C66.0746 55.9706 66.931 55.7542 67.9097 55.7542C68.8884 55.7542 69.7447 55.9706 70.4788 56.4035C71.2128 56.8364 71.7821 57.4387 72.1868 58.2103C72.6008 58.9726 72.8079 59.8572 72.8079 60.8641C72.8079 61.871 72.6008 62.7603 72.1868 63.532C71.7821 64.2942 71.2128 64.8918 70.4788 65.3247C69.7447 65.7576 68.8884 65.974 67.9097 65.974ZM67.9097 64.633C68.5872 64.633 69.1754 64.4824 69.6742 64.1813C70.1823 63.8802 70.5776 63.4473 70.8599 62.8827C71.1422 62.318 71.2834 61.6452 71.2834 60.8641C71.2834 60.083 71.1422 59.4102 70.8599 58.8455C70.5776 58.2809 70.1823 57.848 69.6742 57.5469C69.1754 57.2458 68.5872 57.0952 67.9097 57.0952C67.2321 57.0952 66.6393 57.2458 66.1311 57.5469C65.6229 57.848 65.2277 58.2809 64.9454 58.8455C64.6725 59.4102 64.536 60.083 64.536 60.8641C64.536 61.6452 64.6725 62.318 64.9454 62.8827C65.2277 63.4473 65.6229 63.8802 66.1311 64.1813C66.6393 64.4824 67.2321 64.633 67.9097 64.633Z" fill="black" />
	<path d="M78.1731 65.974C77.4673 65.974 76.8274 65.8376 76.2533 65.5647C75.6887 65.2823 75.237 64.8542 74.8982 64.2801C74.5688 63.7061 74.4042 62.9768 74.4042 62.0922V55.9236H75.9004V62.1063C75.9004 62.9721 76.1075 63.6073 76.5215 64.0119C76.9356 64.4166 77.4955 64.6189 78.2013 64.6189C78.8977 64.6189 79.4529 64.4166 79.867 64.0119C80.281 63.6073 80.4881 62.9721 80.4881 62.1063V55.9236H81.9843V62.0922C81.9843 62.9768 81.8102 63.7061 81.4621 64.2801C81.1233 64.8542 80.6622 65.2823 80.0787 65.5647C79.5047 65.8376 78.8695 65.974 78.1731 65.974Z" fill="black" />
	<path d="M83.9036 65.8046V55.9236H87.3055C88.0866 55.9236 88.7265 56.0553 89.2253 56.3188C89.7335 56.5823 90.1099 56.9399 90.3545 57.3916C90.5992 57.8339 90.7216 58.328 90.7216 58.8738C90.7216 59.4855 90.5569 60.0407 90.2275 60.5394C89.9075 61.0382 89.4041 61.3958 88.7171 61.6122L90.8204 65.8046H89.0841L87.1644 61.824H85.3999V65.8046H83.9036ZM85.3999 60.6947H87.2208C87.8984 60.6947 88.3925 60.53 88.703 60.2007C89.023 59.8713 89.1829 59.4431 89.1829 58.9161C89.1829 58.3891 89.0277 57.9704 88.7171 57.6598C88.4066 57.3399 87.9031 57.1799 87.2067 57.1799H85.3999V60.6947Z" fill="black" />
	<path d="M96.0482 65.8046V55.9236H97.5444V65.8046H96.0482Z" fill="black" />
	<path d="M99.5495 65.8046V55.9236H101.046L106 63.3626V55.9236H107.497V65.8046H106L101.046 58.3656V65.8046H99.5495Z" fill="black" />
	<path d="M109.502 65.8046V55.9236H112.707C113.864 55.9236 114.814 56.1259 115.558 56.5306C116.311 56.9352 116.866 57.5092 117.224 58.2527C117.591 58.9867 117.774 59.8619 117.774 60.8782C117.774 61.8851 117.591 62.7603 117.224 63.5037C116.866 64.2378 116.311 64.8071 115.558 65.2118C114.814 65.607 113.864 65.8046 112.707 65.8046H109.502ZM110.999 64.5342H112.65C113.544 64.5342 114.25 64.3883 114.767 64.0966C115.294 63.8049 115.671 63.3861 115.897 62.8403C116.132 62.2945 116.25 61.6405 116.25 60.8782C116.25 60.116 116.132 59.4572 115.897 58.902C115.671 58.3468 115.294 57.9233 114.767 57.6316C114.25 57.3304 113.544 57.1799 112.65 57.1799H110.999V64.5342Z" fill="black" />
	<path d="M119.427 65.8046V55.9236H125.709V57.1375H120.924V60.2148H125.285V61.4005H120.924V64.5907H125.709V65.8046H119.427Z" fill="black" />
	<path d="M126.998 65.8046L130.047 60.8076L126.969 55.9236H128.677L131.006 59.6219L133.18 55.9236H134.86L131.797 60.8782L134.902 65.8046H133.194L130.851 62.078L128.677 65.8046H126.998Z" fill="black" />
	<path d="M9.76052 82.4675C9.12061 82.4675 8.53715 82.3546 8.01017 82.1287C7.49259 81.8934 7.07852 81.5406 6.76798 81.07C6.45743 80.5995 6.29275 80.0113 6.27393 79.3055H7.75608C7.7749 79.8325 7.9537 80.2795 8.29248 80.6466C8.64067 81.0042 9.13002 81.1829 9.76052 81.1829C10.3628 81.1829 10.8239 81.0183 11.1439 80.6889C11.4638 80.3501 11.6238 79.9314 11.6238 79.4326C11.6238 78.8303 11.4074 78.3833 10.9745 78.0916C10.551 77.7999 10.0287 77.654 9.40763 77.654H8.67361V76.4118H9.42174C9.97696 76.4118 10.424 76.2801 10.7627 76.0166C11.1109 75.7531 11.285 75.3814 11.285 74.9014C11.285 74.4968 11.1486 74.1674 10.8757 73.9133C10.6122 73.6592 10.2358 73.5322 9.74641 73.5322C9.23824 73.5322 8.83829 73.6828 8.54657 73.9839C8.25484 74.2756 8.09486 74.6426 8.06663 75.0849H6.58447C6.60329 74.5109 6.74445 74.0121 7.00795 73.5887C7.28085 73.1652 7.65257 72.8358 8.12309 72.6006C8.59362 72.3653 9.13472 72.2477 9.74641 72.2477C10.4051 72.2477 10.9557 72.3653 11.398 72.6006C11.8497 72.8264 12.1884 73.137 12.4143 73.5322C12.6496 73.918 12.7672 74.3415 12.7672 74.8026C12.7672 75.3296 12.6213 75.7907 12.3296 76.186C12.0379 76.5812 11.6473 76.8447 11.158 76.9764C11.7226 77.0988 12.1884 77.3764 12.5554 77.8093C12.9225 78.2328 13.106 78.7833 13.106 79.4608C13.106 80.0066 12.9789 80.5101 12.7248 80.9712C12.4708 81.4229 12.0943 81.7852 11.5956 82.0581C11.0968 82.331 10.4851 82.4675 9.76052 82.4675Z" fill="black" />
	<path d="M19.4552 82.2981V80.3219H14.5006V79.1362L19.2152 72.4171H20.9373V79.0232H22.3207V80.3219H20.9373V82.2981H19.4552ZM16.1239 79.0232H19.5399V74.0686L16.1239 79.0232Z" fill="black" />
	<path d="M27.1913 82.4675C26.4949 82.4675 25.8926 82.3451 25.3845 82.1005C24.8763 81.8464 24.4717 81.5029 24.1705 81.07C23.8788 80.6277 23.7 80.129 23.6341 79.5738H25.1022C25.1963 80.0443 25.4315 80.4348 25.808 80.7454C26.1844 81.0465 26.6502 81.1971 27.2054 81.1971C27.6195 81.1971 27.9771 81.0983 28.2782 80.9006C28.5793 80.6936 28.8146 80.4207 28.984 80.0819C29.1534 79.7431 29.2381 79.362 29.2381 78.9385C29.2381 78.2704 29.0499 77.7387 28.6735 77.3435C28.297 76.9388 27.8218 76.7365 27.2478 76.7365C26.7584 76.7365 26.3396 76.8541 25.9915 77.0894C25.6433 77.3152 25.3892 77.6022 25.2292 77.9504H23.8035L24.6505 72.4171H29.9862V73.7298H25.7797L25.2716 76.3695C25.488 76.1248 25.7844 75.9225 26.1608 75.7625C26.5467 75.5931 26.9796 75.5084 27.4595 75.5084C28.1276 75.5084 28.7017 75.6637 29.1816 75.9742C29.6616 76.2754 30.0286 76.6847 30.2827 77.2023C30.5461 77.7199 30.6779 78.2939 30.6779 78.9244C30.6779 79.5832 30.5367 80.1807 30.2544 80.7171C29.9721 81.2535 29.5675 81.6817 29.0405 82.0017C28.5229 82.3122 27.9065 82.4675 27.1913 82.4675Z" fill="black" />
	<path d="M33.8147 82.2981V72.4171H37.019C38.1765 72.4171 39.127 72.6194 39.8704 73.024C40.6232 73.4287 41.1784 74.0027 41.536 74.7462C41.9031 75.4802 42.0866 76.3554 42.0866 77.3717C42.0866 78.3786 41.9031 79.2538 41.536 79.9972C41.1784 80.7313 40.6232 81.3006 39.8704 81.7053C39.127 82.1005 38.1765 82.2981 37.019 82.2981H33.8147ZM35.311 81.0277H36.9625C37.8565 81.0277 38.5623 80.8818 39.0799 80.5901C39.6069 80.2984 39.9833 79.8796 40.2092 79.3338C40.4444 78.788 40.5621 78.134 40.5621 77.3717C40.5621 76.6095 40.4444 75.9507 40.2092 75.3955C39.9833 74.8403 39.6069 74.4168 39.0799 74.1251C38.5623 73.8239 37.8565 73.6734 36.9625 73.6734H35.311V81.0277Z" fill="black" />
	<path d="M43.7399 82.2981V72.4171H45.2361V82.2981H43.7399Z" fill="black" />
	<path d="M46.606 82.2981L50.2479 72.4171H51.8853L55.499 82.2981H53.918L53.0711 79.8843H49.0339L48.187 82.2981H46.606ZM49.4574 78.6986H52.6476L51.0525 74.1957L49.4574 78.6986Z" fill="black" />
	<path d="M56.8769 82.2981V72.4171H58.6414L61.9868 78.995L65.3181 72.4171H67.0826V82.2981H65.5863V75.0003L62.5656 80.8865H61.4081L58.3732 75.0144V82.2981H56.8769Z" fill="black" />
	<path d="M69.0904 82.2981V72.4171H75.3719V73.631H70.5866V76.7083H74.9484V77.894H70.5866V81.0842H75.3719V82.2981H69.0904Z" fill="black" />
	<path d="M79.4695 82.2981V73.631H76.5476V72.4171H83.8737V73.631H80.9658V82.2981H79.4695Z" fill="black" />
	<path d="M85.2739 82.2981V72.4171H91.5554V73.631H86.7701V76.7083H91.1319V77.894H86.7701V81.0842H91.5554V82.2981H85.2739Z" fill="black" />
	<path d="M93.3381 82.2981V72.4171H96.74C97.521 72.4171 98.161 72.5488 98.6597 72.8123C99.1679 73.0758 99.5443 73.4334 99.789 73.8851C100.034 74.3274 100.156 74.8215 100.156 75.3673C100.156 75.979 99.9913 76.5342 99.6619 77.0329C99.342 77.5317 98.8385 77.8893 98.1515 78.1057L100.255 82.2981H98.5186L96.5988 78.3175H94.8343V82.2981H93.3381ZM94.8343 77.1882H96.6553C97.3328 77.1882 97.8269 77.0235 98.1374 76.6942C98.4574 76.3648 98.6174 75.9366 98.6174 75.4096C98.6174 74.8826 98.4621 74.4639 98.1515 74.1533C97.841 73.8334 97.3375 73.6734 96.6412 73.6734H94.8343V77.1882Z" fill="black" />
	<path d="M105.483 82.2981V72.4171H106.979V82.2981H105.483Z" fill="black" />
	<path d="M108.984 82.2981V72.4171H110.48L115.435 79.8561V72.4171H116.931V82.2981H115.435L110.48 74.8591V82.2981H108.984Z" fill="black" />
	<path d="M118.937 82.2981V72.4171H122.141C123.298 72.4171 124.249 72.6194 124.992 73.024C125.745 73.4287 126.3 74.0027 126.658 74.7462C127.025 75.4802 127.209 76.3554 127.209 77.3717C127.209 78.3786 127.025 79.2538 126.658 79.9972C126.3 80.7313 125.745 81.3006 124.992 81.7053C124.249 82.1005 123.298 82.2981 122.141 82.2981H118.937ZM120.433 81.0277H122.085C122.979 81.0277 123.684 80.8818 124.202 80.5901C124.729 80.2984 125.105 79.8796 125.331 79.3338C125.566 78.788 125.684 78.134 125.684 77.3717C125.684 76.6095 125.566 75.9507 125.331 75.3955C125.105 74.8403 124.729 74.4168 124.202 74.1251C123.684 73.8239 122.979 73.6734 122.085 73.6734H120.433V81.0277Z" fill="black" />
	<path d="M128.862 82.2981V72.4171H135.143V73.631H130.358V76.7083H134.72V77.894H130.358V81.0842H135.143V82.2981H128.862Z" fill="black" />
	<path d="M136.432 82.2981L139.481 77.3011L136.404 72.4171H138.112L140.441 76.1154L142.615 72.4171H144.294L141.231 77.3717L144.337 82.2981H142.629L140.286 78.5715L138.112 82.2981H136.432Z" fill="black" />
	<path d="M7.86903 98.7916V90.6044L6.27395 90.9715V89.8704L8.46189 88.9105H9.42177V98.7916H7.86903Z" fill="black" />
	<path d="M14.7465 98.961C14.0972 98.961 13.542 98.8339 13.0808 98.5798C12.6197 98.3258 12.2574 97.987 11.9939 97.5635C11.7398 97.14 11.5846 96.6789 11.5281 96.1802H12.9256C13.0103 96.6695 13.2126 97.0459 13.5325 97.3094C13.8525 97.5729 14.2619 97.7047 14.7606 97.7047C15.4476 97.7047 16.0122 97.3847 16.4545 96.7448C16.9062 96.0955 17.1462 95.1027 17.1744 93.7664C16.9486 94.1804 16.5957 94.5333 16.1157 94.8251C15.6452 95.1168 15.0994 95.2626 14.4783 95.2626C13.9231 95.2626 13.4008 95.1309 12.9114 94.8674C12.4221 94.6039 12.0269 94.2369 11.7257 93.7664C11.4246 93.2864 11.274 92.7218 11.274 92.0725C11.274 91.4984 11.4152 90.9573 11.6975 90.4492C11.9798 89.941 12.375 89.5316 12.8832 89.2211C13.4008 88.9011 14.0125 88.7412 14.7183 88.7412C15.4429 88.7412 16.0546 88.8776 16.5533 89.1505C17.0521 89.4234 17.452 89.7857 17.7532 90.2374C18.0543 90.6891 18.2707 91.1973 18.4025 91.7619C18.5436 92.3266 18.6142 92.9053 18.6142 93.4982C18.6142 94.5898 18.4589 95.545 18.1484 96.3637C17.8473 97.1824 17.4097 97.8223 16.8356 98.2834C16.2616 98.7351 15.5652 98.961 14.7465 98.961ZM14.8171 93.9781C15.2123 93.9781 15.5652 93.8887 15.8758 93.7099C16.1863 93.5311 16.431 93.2958 16.6098 93.0041C16.798 92.703 16.8921 92.3736 16.8921 92.016C16.8921 91.6302 16.798 91.2914 16.6098 90.9997C16.431 90.6985 16.1816 90.4633 15.8616 90.2939C15.5511 90.1245 15.1982 90.0398 14.803 90.0398C14.4077 90.0398 14.0548 90.1245 13.7443 90.2939C13.4337 90.4633 13.1844 90.6985 12.9961 90.9997C12.8173 91.2914 12.7279 91.6255 12.7279 92.0019C12.7279 92.6042 12.9256 93.0841 13.3208 93.4417C13.716 93.7993 14.2148 93.9781 14.8171 93.9781Z" fill="black" />
	<path d="M19.9713 98.7916V97.7188C20.6112 97.2106 21.2229 96.6977 21.8064 96.1802C22.3898 95.6626 22.9074 95.1544 23.3591 94.6557C23.8202 94.1475 24.1825 93.6534 24.446 93.1735C24.7095 92.6842 24.8413 92.2136 24.8413 91.7619C24.8413 91.4608 24.7895 91.1785 24.686 90.915C24.5825 90.6421 24.4131 90.4256 24.1778 90.2657C23.9426 90.0963 23.6273 90.0116 23.2321 90.0116C22.6392 90.0116 22.1922 90.1998 21.8911 90.5762C21.5993 90.9526 21.4582 91.4043 21.4676 91.9313H20.0137C20.0231 91.2349 20.1689 90.6515 20.4513 90.181C20.743 89.7104 21.1288 89.3528 21.6088 89.1082C22.0981 88.8635 22.6486 88.7412 23.2603 88.7412C24.1919 88.7412 24.9354 89.0046 25.4906 89.5316C26.0552 90.0492 26.3375 90.7738 26.3375 91.7055C26.3375 92.2607 26.2011 92.8112 25.9282 93.357C25.6647 93.9028 25.3165 94.4298 24.8836 94.938C24.4601 95.4367 24.0037 95.9073 23.5144 96.3496C23.025 96.7918 22.5592 97.1918 22.1169 97.5494H26.634V98.7916H19.9713Z" fill="black" />
	<path d="M29.7707 98.7916V88.9105H36.0523V90.1245H31.267V93.2017H35.6288V94.3875H31.267V97.5776H36.0523V98.7916H29.7707Z" fill="black" />
	<path d="M40.7569 98.7916L37.1009 88.9105H38.696L41.6603 97.2388L44.6387 88.9105H46.2197L42.5637 98.7916H40.7569Z" fill="black" />
	<path d="M51.6854 98.961C50.7067 98.961 49.8503 98.7445 49.1163 98.3116C48.3823 97.8788 47.8082 97.2812 47.3942 96.5189C46.9801 95.7473 46.7731 94.858 46.7731 93.8511C46.7731 92.8441 46.9801 91.9595 47.3942 91.1973C47.8082 90.4256 48.3823 89.8234 49.1163 89.3905C49.8503 88.9576 50.7067 88.7411 51.6854 88.7411C52.6641 88.7411 53.5204 88.9576 54.2544 89.3905C54.9885 89.8234 55.5578 90.4256 55.9624 91.1973C56.3765 91.9595 56.5835 92.8441 56.5835 93.8511C56.5835 94.858 56.3765 95.7473 55.9624 96.5189C55.5578 97.2812 54.9885 97.8788 54.2544 98.3116C53.5204 98.7445 52.6641 98.961 51.6854 98.961ZM51.6854 97.62C52.3629 97.62 52.9511 97.4694 53.4498 97.1683C53.958 96.8671 54.3532 96.4342 54.6356 95.8696C54.9179 95.305 55.059 94.6321 55.059 93.8511C55.059 93.07 54.9179 92.3971 54.6356 91.8325C54.3532 91.2679 53.958 90.835 53.4498 90.5339C52.9511 90.2327 52.3629 90.0821 51.6854 90.0821C51.0078 90.0821 50.4149 90.2327 49.9068 90.5339C49.3986 90.835 49.0034 91.2679 48.7211 91.8325C48.4481 92.3971 48.3117 93.07 48.3117 93.8511C48.3117 94.6321 48.4481 95.305 48.7211 95.8696C49.0034 96.4342 49.3986 96.8671 49.9068 97.1683C50.4149 97.4694 51.0078 97.62 51.6854 97.62Z" fill="black" />
	<path d="M58.2504 98.7916V88.9105H59.7467V97.6059H64.2355V98.7916H58.2504Z" fill="black" />
	<path d="M69.1169 98.961C68.4111 98.961 67.7712 98.8245 67.1972 98.5516C66.6325 98.2693 66.1808 97.8411 65.8421 97.2671C65.5127 96.693 65.348 95.9637 65.348 95.0791V88.9105H66.8443V95.0932C66.8443 95.959 67.0513 96.5942 67.4654 96.9989C67.8794 97.4035 68.4394 97.6059 69.1451 97.6059C69.8415 97.6059 70.3967 97.4035 70.8108 96.9989C71.2249 96.5942 71.4319 95.959 71.4319 95.0932V88.9105H72.9282V95.0791C72.9282 95.9637 72.7541 96.693 72.4059 97.2671C72.0671 97.8411 71.606 98.2693 71.0225 98.5516C70.4485 98.8245 69.8133 98.961 69.1169 98.961Z" fill="black" />
	<path d="M77.1625 98.7916V90.1245H74.2405V88.9105H81.5666V90.1245H78.6587V98.7916H77.1625Z" fill="black" />
	<path d="M82.9668 98.7916V88.9105H84.4631V98.7916H82.9668Z" fill="black" />
	<path d="M91.0276 98.961C90.0489 98.961 89.1925 98.7445 88.4585 98.3116C87.7245 97.8788 87.1504 97.2812 86.7364 96.5189C86.3223 95.7473 86.1153 94.858 86.1153 93.8511C86.1153 92.8441 86.3223 91.9595 86.7364 91.1973C87.1504 90.4256 87.7245 89.8234 88.4585 89.3905C89.1925 88.9576 90.0489 88.7411 91.0276 88.7411C92.0063 88.7411 92.8626 88.9576 93.5966 89.3905C94.3307 89.8234 94.9 90.4256 95.3046 91.1973C95.7187 91.9595 95.9257 92.8441 95.9257 93.8511C95.9257 94.858 95.7187 95.7473 95.3046 96.5189C94.9 97.2812 94.3307 97.8788 93.5966 98.3116C92.8626 98.7445 92.0063 98.961 91.0276 98.961ZM91.0276 97.62C91.7051 97.62 92.2933 97.4694 92.792 97.1683C93.3002 96.8671 93.6955 96.4342 93.9778 95.8696C94.2601 95.305 94.4012 94.6321 94.4012 93.8511C94.4012 93.07 94.2601 92.3971 93.9778 91.8325C93.6955 91.2679 93.3002 90.835 92.792 90.5339C92.2933 90.2327 91.7051 90.0821 91.0276 90.0821C90.35 90.0821 89.7571 90.2327 89.249 90.5339C88.7408 90.835 88.3456 91.2679 88.0633 91.8325C87.7904 92.3971 87.6539 93.07 87.6539 93.8511C87.6539 94.6321 87.7904 95.305 88.0633 95.8696C88.3456 96.4342 88.7408 96.8671 89.249 97.1683C89.7571 97.4694 90.35 97.62 91.0276 97.62Z" fill="black" />
	<path d="M97.5926 98.7916V88.9105H99.0889L104.044 96.3496V88.9105H105.54V98.7916H104.044L99.0889 91.3526V98.7916H97.5926Z" fill="black" />
	<path d="M111.102 98.7916V88.9105H112.598V98.7916H111.102Z" fill="black" />
	<path d="M114.603 98.7916V88.9105H116.1L121.054 96.3496V88.9105H122.55V98.7916H121.054L116.1 91.3526V98.7916H114.603Z" fill="black" />
	<path d="M124.556 98.7916V88.9105H127.76C128.918 88.9105 129.868 89.1129 130.612 89.5175C131.364 89.9222 131.92 90.4962 132.277 91.2396C132.644 91.9737 132.828 92.8488 132.828 93.8652C132.828 94.8721 132.644 95.7473 132.277 96.4907C131.92 97.2247 131.364 97.7941 130.612 98.1987C129.868 98.594 128.918 98.7916 127.76 98.7916H124.556ZM126.052 97.5212H127.704C128.598 97.5212 129.304 97.3753 129.821 97.0836C130.348 96.7918 130.725 96.3731 130.95 95.8273C131.186 95.2815 131.303 94.6274 131.303 93.8652C131.303 93.1029 131.186 92.4442 130.95 91.889C130.725 91.3337 130.348 90.9103 129.821 90.6185C129.304 90.3174 128.598 90.1668 127.704 90.1668H126.052V97.5212Z" fill="black" />
	<path d="M134.481 98.7916V88.9105H140.763V90.1245H135.977V93.2017H140.339V94.3875H135.977V97.5776H140.763V98.7916H134.481Z" fill="black" />
	<path d="M142.051 98.7916L145.1 93.7946L142.023 88.9105H143.731L146.06 92.6089L148.234 88.9105H149.914L146.851 93.8652L149.956 98.7916H148.248L145.905 95.065L143.731 98.7916H142.051Z" fill="black" />
	<path fill-rule="evenodd" clip-rule="evenodd" d="M179.357 62.3556C179.103 62.6522 178.874 62.9204 178.642 63.1724C178.082 63.7818 177.64 64.3176 177.323 64.799C177.017 65.2624 176.741 65.8023 176.673 66.403C176.594 67.1016 176.816 67.6956 177.176 68.1509C177.472 68.5267 177.857 68.793 178.077 68.9452C178.125 68.9785 178.171 69.0104 178.216 69.0414C178.668 69.3523 178.967 69.5578 179.228 69.9234C179.482 70.2802 179.777 70.9212 179.772 72.1987C179.766 73.8553 180.035 75.2453 180.857 76.2382C181.725 77.2869 182.917 77.547 183.856 77.6368C184.316 77.6808 184.801 77.6904 185.239 77.6991L185.276 77.6998C185.744 77.7091 186.186 77.7185 186.636 77.7554C187.522 77.8278 188.372 78.0025 189.203 78.4466C190.809 79.3051 192.407 79.6585 193.843 79.4365C195.313 79.2093 196.527 78.3831 197.205 77.1021C198.535 74.5906 197.514 71.1583 194.671 68.1556C194.361 67.8283 194.154 67.42 193.976 66.8495C193.885 66.559 193.809 66.2478 193.724 65.8887C193.712 65.835 193.699 65.7799 193.685 65.7236C193.614 65.4191 193.535 65.0793 193.443 64.7436C193.222 63.9344 192.896 63.0098 192.256 62.1331C191.603 61.2402 190.689 60.4817 189.41 59.8968C186.439 58.5382 184.158 58.6089 182.283 59.6756C181.417 60.1682 180.729 60.8241 180.162 61.4391C179.877 61.7475 179.606 62.064 179.359 62.3536L179.357 62.3556ZM183.834 62.4022C184.606 61.9632 185.784 61.688 188.105 62.7495C188.943 63.1326 189.417 63.5644 189.722 63.983C190.04 64.4179 190.241 64.9261 190.417 65.5701C190.492 65.8451 190.557 66.1197 190.628 66.4246C190.642 66.4843 190.656 66.5451 190.671 66.6074C190.757 66.9723 190.855 67.3777 190.982 67.7835C191.238 68.6057 191.633 69.5093 192.393 70.3122C194.854 72.9115 194.829 74.8857 194.433 75.6344C194.248 75.9835 193.919 76.2507 193.364 76.3365C192.775 76.4276 191.866 76.3135 190.682 75.6803C189.342 74.9641 188.029 74.7219 186.892 74.6289C186.335 74.5834 185.803 74.5728 185.348 74.5638L185.339 74.5636C184.861 74.5541 184.487 74.546 184.155 74.5142C183.483 74.4499 183.338 74.3156 183.273 74.2378C183.163 74.1043 182.904 73.6357 182.909 72.2097C182.915 70.4048 182.486 69.0908 181.783 68.1034C181.18 67.2566 180.425 66.7469 179.993 66.4553L179.99 66.4534C180.179 66.18 180.482 65.8061 180.951 65.2964C181.222 65.0018 181.483 64.6962 181.724 64.4141L181.743 64.3919C181.996 64.096 182.229 63.8242 182.467 63.5665C182.944 63.0494 183.376 62.6625 183.834 62.4022Z" fill="black" />
	<path d="M209.447 54.3124C209.555 53.7678 209.368 53.2063 208.954 52.8361L205.513 49.7596C205.129 49.4162 204.601 49.2833 204.1 49.4042L159.088 60.2658C157.816 60.5727 157.457 62.21 158.483 63.0211L198.991 95.0249C199.91 95.7511 201.272 95.2501 201.501 94.1014L209.447 54.3124Z" fill="#84A6FD" fill-opacity="0.4" />
	<path fill-rule="evenodd" clip-rule="evenodd" d="M228.354 24.0696L230.529 25.8944C232.655 27.6786 232.783 30.9063 230.804 32.853L215.085 48.3168C213.509 49.8676 210.979 49.8644 209.407 48.3096C208.012 46.9305 207.808 44.7492 208.923 43.1357L221.459 24.9988C223.035 22.7185 226.23 22.2878 228.354 24.0696ZM233.553 22.2899C237.806 25.8584 238.061 32.3139 234.104 36.2072L218.385 51.671C214.974 55.0265 209.501 55.0195 206.098 51.6555C203.081 48.6714 202.64 43.9518 205.053 40.4604L217.588 22.3235C220.74 17.7629 227.132 16.9016 231.378 20.4651L233.553 22.2899Z" fill="black" />
	<path d="M265.599 56.6995C266.192 55.0715 265.352 53.2715 263.724 52.679L229.089 40.0728C227.461 39.4803 225.661 40.3197 225.069 41.9476L223.46 46.3691L261.042 60.0481C262.67 60.6407 264.47 59.8013 265.063 58.1733L265.599 56.6995Z" fill="black" />
</svg>
